HIERARCHY
ROOT Hips
{
    OFFSET -0.1800 -22.3300 2.8200
    CHANNELS 6 Xposition Yposition Zposition Zrotation Yrotation Xrotation 
    JOINT LeftUpLeg
    {
        OFFSET -0.6800 6.9500 -9.1400
        CHANNELS 3 Zrotation Yrotation Xrotation
        JOINT LeftLeg
        {
            OFFSET -0.4500 3.4300 -37.5200
            CHANNELS 3 Zrotation Yrotation Xrotation
            JOINT LeftFoot
            {
                OFFSET -4.3700 -1.3600 -39.8000
                CHANNELS 3 Zrotation Yrotation Xrotation
                JOINT LeftToe
                {
                    OFFSET 11.9300 2.6400 -5.5800
                    CHANNELS 3 Zrotation Yrotation Xrotation
                    End Site
                    {
                        OFFSET 0.0000 0.0000 0.0000
                    }
                }
            }
        }
    }
    JOINT RightUpLeg
    {
        OFFSET -0.4300 -6.7700 -9.0500
        CHANNELS 3 Zrotation Yrotation Xrotation
        JOINT RightLeg
        {
            OFFSET -0.8900 -3.8300 -38.2600
            CHANNELS 3 Zrotation Yrotation Xrotation
            JOINT RightFoot
            {
                OFFSET -4.2300 1.5800 -39.8400
                CHANNELS 3 Zrotation Yrotation Xrotation
                JOINT RightToe
                {
                    OFFSET 12.3300 -2.5400 -4.8100
                    CHANNELS 3 Zrotation Yrotation Xrotation
                    End Site
                    {
                        OFFSET 0.0000 0.0000 0.0000
                    }
                }
            }
        }
    }
    JOINT Spine
    {
        OFFSET -2.6700 -0.2500 10.9000
        CHANNELS 3 Zrotation Yrotation Xrotation
        JOINT Spine1
        {
            OFFSET 0.1100 0.5500 13.5200
            CHANNELS 3 Zrotation Yrotation Xrotation
            JOINT Spine2
            {
                OFFSET 2.5400 0.1500 5.2900
                CHANNELS 3 Zrotation Yrotation Xrotation
                JOINT Neck
                {
                    OFFSET -4.2900 -0.2800 21.3900
                    CHANNELS 3 Zrotation Yrotation Xrotation
                    JOINT Head
                    {
                        OFFSET 5.1300 0.5200 6.5000
                        CHANNELS 3 Zrotation Yrotation Xrotation
                        End Site
                        {
                            OFFSET 0.0000 0.0000 0.0000
                        }
                    }
                }
                JOINT LeftShoulder
                {
                    OFFSET -3.4100 7.8800 12.1700
                    CHANNELS 3 Zrotation Yrotation Xrotation
                    JOINT LeftArm
                    {
                        OFFSET -0.8900 9.1000 3.0500
                        CHANNELS 3 Zrotation Yrotation Xrotation
                        JOINT LeftForeArm
                        {
                            OFFSET -2.7500 25.9600 -1.2800
                            CHANNELS 3 Zrotation Yrotation Xrotation
                            JOINT LeftHand
                            {
                                OFFSET -1.4900 8.4000 -0.8200
                                CHANNELS 3 Zrotation Yrotation Xrotation
                                End Site
                                {
                                    OFFSET 0.0000 0.0000 0.0000
                                }
                            }
                        }
                    }
                }
                JOINT RightShoulder
                {
                    OFFSET -3.8600 -8.1800 11.8800
                    CHANNELS 3 Zrotation Yrotation Xrotation
                    JOINT RightArm
                    {
                        OFFSET -0.9100 -9.6000 3.2600
                        CHANNELS 3 Zrotation Yrotation Xrotation
                        JOINT RightForeArm
                        {
                            OFFSET -2.1400 -25.3700 -1.3300
                            CHANNELS 3 Zrotation Yrotation Xrotation
                            JOINT RightHand
                            {
                                OFFSET -1.0300 -8.4600 -0.6100
                                CHANNELS 3 Zrotation Yrotation Xrotation
                                End Site
                                {
                                    OFFSET 0.0000 0.0000 0.0000
                                }
                            }
                        }
                    }
                }
            }
        }
    }
}
MOTION
Frames: 12
Frame Time: 0.016667
0.146973 0.121958 0.586345 77.114133 -7.049710 6.985322 -20.142859 -63.518243 22.958674 -110.250342 78.398117 -141.680165 6.718532 -30.489951 12.547168 -4.251294 -9.321617 5.043930 31.945752 -74.399792 -40.117689 166.740305 80.217196 179.332622 -2.631853 -21.249725 -2.182839 -24.312592 -14.462210 -11.082090 -11.782103 51.304829 -12.459791 2.103496 -3.847348 0.428501 -2.423884 3.771580 -1.293906 -5.898788 -22.866626 0.373994 -2.497421 12.768502 2.219162 -7.182539 4.340714 -18.023048 2.312414 10.027637 -34.043062 -44.076249 19.096721 5.945585 -1.308370 11.165544 14.261702 16.063459 3.535846 17.775634 12.214580 11.170552 47.920927 53.989818 25.513577 -3.808794 6.556262 16.727322 9.131335
0.145084 0.119875 0.584648 77.123598 -8.146667 6.557122 -20.142859 -63.518243 22.958674 -110.250342 78.398117 -141.680165 6.718532 -30.489951 12.547168 -4.251294 -9.321617 5.043930 31.945752 -74.399792 -40.117689 166.740305 80.217196 179.332622 -2.631853 -21.249725 -2.182839 -24.312592 -14.462210 -11.082090 -11.782103 51.304829 -12.459791 2.103496 -3.847348 0.428501 -2.423884 3.771580 -1.293906 -5.898788 -22.866626 0.373994 -2.497421 12.768502 2.219162 -7.182539 4.340714 -18.023048 2.312414 10.027637 -34.043062 -44.076249 19.096721 5.945585 -1.308370 11.165544 14.261702 16.063459 3.535846 17.775634 12.214580 11.170552 47.920927 53.989818 25.513577 -3.808794 6.556262 16.727322 9.131335
0.143032 0.118326 0.582879 76.803916 -9.273826 6.324270 -20.377315 -62.253432 22.067422 -114.357857 78.541175 -144.928306 8.311325 -28.976876 11.914894 -4.831731 -6.898500 4.951533 25.369920 -73.100828 -33.223122 163.568915 80.247467 175.952459 -3.025264 -21.395029 -4.518481 -22.754092 -9.642615 -10.597399 -11.515835 49.956334 -11.811222 1.932056 -5.446572 0.627565 -2.522077 3.886779 -1.346041 -4.458957 -22.846695 0.136250 -2.001434 13.564357 2.164949 -5.426692 4.740406 -17.928029 3.223930 10.926524 -34.218619 -47.374655 21.396257 5.479111 -1.422474 11.940774 15.734752 14.808486 4.292388 18.077940 12.071137 12.888937 48.401191 58.499723 28.055191 -2.704725 7.529179 16.375224 10.167230
0.140980 0.116689 0.582044 76.181056 -10.460186 6.162409 -20.377315 -62.253432 22.067422 -114.357857 78.541175 -144.928306 8.311325 -28.976876 11.914894 -4.831731 -6.898500 4.951533 25.369920 -73.100828 -33.223122 163.568915 80.247467 175.952459 -3.025264 -21.395029 -4.518481 -22.754092 -9.642615 -10.597399 -11.515835 49.956334 -11.811222 1.932056 -5.446572 0.627565 -2.522077 3.886779 -1.346041 -4.458957 -22.846695 0.136250 -2.001434 13.564357 2.164949 -5.426692 4.740406 -17.928029 3.223930 10.926524 -34.218619 -47.374655 21.396257 5.479111 -1.422474 11.940774 15.734752 14.808486 4.292388 18.077940 12.071137 12.888937 48.401191 58.499723 28.055191 -2.704725 7.529179 16.375224 10.167230
0.138846 0.114684 0.582000 75.667682 -11.466928 6.004830 -18.468349 -60.385988 20.177180 -119.469677 79.126414 -149.538221 9.806049 -28.864928 11.103587 -6.530231 -4.878385 4.242326 21.697035 -70.912574 -29.017385 161.490164 80.878898 174.385510 -2.471758 -20.686073 -7.031891 -24.033388 -7.183235 -7.882139 -11.091782 48.569753 -11.426473 2.076479 -6.984026 0.198487 -2.576766 3.975099 -1.502856 -3.434173 -22.535463 0.309771 -0.797551 14.596282 2.120343 -3.941708 5.389305 -18.041556 4.069170 10.927658 -34.056100 -50.337778 23.726503 5.107196 -0.747927 12.641815 15.581525 13.892620 5.244518 18.663845 12.246306 13.702474 49.018667 61.388710 30.247585 -2.121934 8.449031 20.402824 11.392748
0.137002 0.112839 0.580715 75.547985 -11.640549 5.877288 -18.468349 -60.385988 20.177180 -119.469677 79.126414 -149.538221 9.806049 -28.864928 11.103587 -6.530231 -4.878385 4.242326 21.697035 -70.912574 -29.017385 161.490164 80.878898 174.385510 -2.471758 -20.686073 -7.031891 -24.033388 -7.183235 -7.882139 -11.091782 48.569753 -11.426473 2.076479 -6.984026 0.198487 -2.576766 3.975099 -1.502856 -3.434173 -22.535463 0.309771 -0.797551 14.596282 2.120343 -3.941708 5.389305 -18.041556 4.069170 10.927658 -34.056100 -50.337778 23.726503 5.107196 -0.747927 12.641815 15.581525 13.892620 5.244518 18.663845 12.246306 13.702474 49.018667 61.388710 30.247585 -2.121934 8.449031 20.402824 11.392748
0.135501 0.110522 0.579016 75.705947 -11.792537 5.592890 -17.091146 -61.711041 18.880164 -137.692145 77.642909 -166.961615 15.368030 -40.238944 5.623941 -12.357130 -2.754160 2.968907 18.703775 -72.390207 -26.700019 156.265885 78.537557 168.633058 -0.701866 -30.490897 -8.647050 -23.085296 -6.700506 -9.788334 -11.514116 46.376185 -11.800383 2.571697 -10.203155 0.332475 -3.205193 3.727449 -1.348826 -3.163151 -24.243558 0.737853 1.008674 15.919432 2.637385 -2.834008 5.755441 -19.642562 4.311213 12.050152 -31.118865 -50.124395 24.751495 2.978969 1.216910 21.448842 20.764429 12.704336 5.353926 22.205803 11.473764 16.763030 46.874546 63.536958 30.632978 0.408598 10.752918 27.058749 11.439034
0.133614 0.107921 0.576990 76.595226 -11.891442 4.859959 -17.091146 -61.711041 18.880164 -137.692145 77.642909 -166.961615 15.368030 -40.238944 5.623941 -12.357130 -2.754160 2.968907 18.703775 -72.390207 -26.700019 156.265885 78.537557 168.633058 -0.701866 -30.490897 -8.647050 -23.085296 -6.700506 -9.788334 -11.514116 46.376185 -11.800383 2.571697 -10.203155 0.332475 -3.205193 3.727449 -1.348826 -3.163151 -24.243558 0.737853 1.008674 15.919432 2.637385 -2.834008 5.755441 -19.642562 4.311213 12.050152 -31.118865 -50.124395 24.751495 2.978969 1.216910 21.448842 20.764429 12.704336 5.353926 22.205803 11.473764 16.763030 46.874546 63.536958 30.632978 0.408598 10.752918 27.058749 11.439034
0.131766 0.104823 0.575115 77.578177 -11.694586 3.939505 -17.379699 -62.757422 17.699997 -153.554772 74.431173 177.918937 27.645554 -46.658369 -6.488764 -18.896414 5.882669 -2.312619 16.446335 -73.153372 -26.001064 157.126234 78.340954 170.414113 -0.378386 -32.922830 -9.317751 -27.097613 -5.300379 -9.180740 -12.437779 44.779649 -11.196522 2.398322 -14.449387 0.936180 -3.774416 2.834299 -0.930841 -2.162553 -25.607625 1.149315 2.687740 17.927579 3.460007 -0.848948 5.766436 -20.592051 4.374427 14.365673 -28.414585 -53.302685 26.282149 -0.722844 3.514284 29.562973 28.147026 9.855018 5.130366 24.598235 11.551757 21.431601 44.691801 69.743055 31.068207 3.867778 13.588050 29.054495 10.375580
0.130241 0.102256 0.572475 78.455003 -11.229249 3.389819 -17.379699 -62.757422 17.699997 -153.554772 74.431173 177.918937 27.645554 -46.658369 -6.488764 -18.896414 5.882669 -2.312619 16.446335 -73.153372 -26.001064 157.126234 78.340954 170.414113 -0.378386 -32.922830 -9.317751 -27.097613 -5.300379 -9.180740 -12.437779 44.779649 -11.196522 2.398322 -14.449387 0.936180 -3.774416 2.834299 -0.930841 -2.162553 -25.607625 1.149315 2.687740 17.927579 3.460007 -0.848948 5.766436 -20.592051 4.374427 14.365673 -28.414585 -53.302685 26.282149 -0.722844 3.514284 29.562973 28.147026 9.855018 5.130366 24.598235 11.551757 21.431601 44.691801 69.743055 31.068207 3.867778 13.588050 29.054495 10.375580
0.128185 0.098646 0.570048 79.383933 -9.910747 2.952590 -17.383501 -60.916197 15.191586 -163.187871 62.609672 168.571716 41.545686 -50.974856 -17.455574 -34.320978 9.535710 -5.993788 19.872393 -75.695825 -31.328250 163.111756 77.716036 177.390243 0.612303 -37.338962 -9.528653 -34.673326 -2.424601 -6.847918 -13.191679 41.705721 -11.395280 1.963588 -19.872247 1.180979 -4.473773 2.060501 0.017664 -1.870222 -25.234566 2.074824 5.516183 19.027277 4.657114 1.122799 6.823071 -21.231568 3.260136 16.699298 -25.794127 -57.224475 26.750168 -3.285913 9.221060 36.761013 36.102858 6.115328 5.281221 28.687325 10.481291 26.218862 41.453587 74.726876 31.094933 7.021106 14.018905 32.157578 11.697172
0.126509 0.095432 0.565883 80.643422 -8.630694 2.240811 -17.383501 -60.916197 15.191586 -163.187871 62.609672 168.571716 41.545686 -50.974856 -17.455574 -34.320978 9.535710 -5.993788 19.872393 -75.695825 -31.328250 163.111756 77.716036 177.390243 0.612303 -37.338962 -9.528653 -34.673326 -2.424601 -6.847918 -13.191679 41.705721 -11.395280 1.963588 -19.872247 1.180979 -4.473773 2.060501 0.017664 -1.870222 -25.234566 2.074824 5.516183 19.027277 4.657114 1.122799 6.823071 -21.231568 3.260136 16.699298 -25.794127 -57.224475 26.750168 -3.285913 9.221060 36.761013 36.102858 6.115328 5.281221 28.687325 10.481291 26.218862 41.453587 74.726876 31.094933 7.021106 14.018905 32.157578 11.697172
